<?xml version="1.0" standalone="no"?>
<!DOCTYPE svg PUBLIC "-//W3C//DTD SVG 20010904//EN"
 "http://www.w3.org/TR/2001/REC-SVG-20010904/DTD/svg10.dtd">
<svg version="1.0" xmlns="http://www.w3.org/2000/svg"
 width="1570.000000pt" height="1490.000000pt" viewBox="0 0 1570.000000 1490.000000"
 preserveAspectRatio="xMidYMid meet">

<g transform="translate(0.000000,1490.000000) scale(0.100000,-0.100000)"
fill="#000000" stroke="none">
<path d="M7595 13068 c-132 -77 -393 -229 -580 -338 -187 -108 -482 -280 -655
-380 -173 -101 -425 -247 -560 -325 -330 -191 -399 -231 -655 -380 -121 -71
-245 -143 -275 -160 -30 -17 -98 -56 -150 -87 -52 -30 -234 -136 -405 -235
-259 -151 -628 -365 -1155 -671 -209 -122 -246 -142 -259 -142 -12 0 -13 -415
-7 -2877 5 -2219 10 -2880 19 -2886 18 -12 719 -418 1227 -710 124 -72 250
-144 280 -162 30 -17 147 -85 260 -150 113 -65 392 -226 620 -357 228 -132
478 -276 555 -321 77 -44 165 -95 195 -113 48 -29 312 -181 860 -496 91 -53
219 -127 285 -165 66 -39 244 -141 395 -228 151 -86 282 -163 290 -171 17 -14
98 32 1200 681 124 73 347 203 495 290 406 238 541 317 750 440 268 158 1180
693 1560 915 176 103 453 265 616 360 l296 173 6 435 c4 239 7 1534 7 2876
l-1 2441 -325 190 c-179 105 -338 196 -352 203 -26 13 -49 0 -552 -291 -979
-568 -1074 -623 -1077 -633 -2 -6 41 -35 94 -66 54 -30 209 -120 346 -198
l247 -144 0 -1927 0 -1927 -212 -125 c-363 -213 -712 -418 -988 -579 -146 -85
-393 -231 -550 -323 -157 -92 -458 -269 -670 -393 -212 -123 -410 -239 -440
-257 -118 -70 -376 -222 -398 -234 -20 -10 -25 -9 -40 8 -9 11 -147 95 -307
186 -159 92 -315 182 -345 200 -30 18 -179 104 -330 190 -151 87 -372 214
-490 283 -284 165 -551 320 -790 457 -107 62 -323 186 -480 277 -157 90 -351
202 -431 248 l-146 84 -6 885 c-4 486 -7 1351 -7 1922 0 821 -3 1038 -12 1042
-19 6 -71 -26 447 275 99 58 205 119 235 137 30 17 197 114 370 215 173 101
340 197 370 215 109 63 1252 726 1557 903 l312 181 77 -45 76 -45 222 127
c121 70 406 233 631 364 226 130 488 281 583 335 94 55 172 103 172 107 0 4
-44 33 -97 64 -124 72 -450 266 -525 312 l-57 34 -43 -24 c-61 -36 -513 -298
-633 -368 -55 -32 -221 -129 -370 -215 -148 -86 -299 -174 -335 -195 -36 -21
-162 -94 -280 -162 -520 -302 -989 -574 -1040 -603 -30 -18 -206 -120 -390
-227 -296 -172 -572 -332 -1370 -795 -118 -69 -272 -158 -341 -199 l-127 -74
-73 44 c-41 24 -128 75 -193 112 -65 38 -119 74 -119 79 0 5 56 41 124 81 68
39 216 124 329 189 113 65 261 150 330 190 69 39 186 107 260 150 74 43 284
164 465 268 432 248 915 526 1355 779 443 255 893 514 1205 693 132 76 256
147 276 159 20 12 158 91 308 176 149 85 269 159 268 163 -2 7 -686 409 -691
406 -1 0 -109 -63 -241 -141z m-4375 -3010 c124 -74 428 -255 675 -403 587
-349 569 -338 577 -350 4 -5 8 -863 8 -1906 l0 -1897 288 -168 c158 -92 366
-213 462 -270 96 -56 312 -182 480 -279 168 -98 346 -202 395 -230 50 -29 171
-99 270 -157 334 -195 550 -321 605 -353 30 -17 181 -105 335 -195 154 -90
343 -200 420 -245 l140 -81 -4 -840 c-2 -461 -5 -841 -7 -843 -2 -2 -99 53
-216 121 -218 128 -636 372 -1323 772 -214 125 -415 242 -445 260 -30 18 -98
58 -150 88 -52 31 -161 95 -243 142 -81 48 -189 111 -240 140 -50 29 -159 92
-242 141 -149 87 -258 151 -765 446 -146 85 -484 283 -751 439 l-487 284 -6
880 c-10 1508 -16 4647 -8 4643 4 -2 108 -65 232 -139z"/>
<path d="M9835 11936 c-88 -51 -855 -498 -965 -561 -76 -44 -291 -168 -433
-251 -64 -37 -114 -71 -110 -75 5 -4 145 -87 313 -184 168 -97 319 -185 335
-195 l31 -19 179 103 c99 56 272 156 385 221 113 65 358 205 545 313 330 188
434 249 484 279 l23 15 -33 20 c-114 70 -640 379 -651 383 -7 2 -53 -20 -103
-49z"/>
<path d="M10375 11029 c-330 -192 -691 -402 -802 -466 -112 -65 -199 -121
-195 -124 6 -6 430 -254 626 -366 l58 -33 117 68 c64 38 229 133 366 212 138
79 392 225 565 325 173 100 372 214 443 254 70 41 127 76 127 80 0 3 -78 51
-173 107 -94 56 -246 144 -335 197 -90 54 -171 97 -180 96 -10 -1 -287 -158
-617 -350z"/>
<path d="M7500 10442 c-157 -91 -310 -180 -340 -197 -30 -18 -156 -91 -280
-162 -124 -72 -391 -227 -595 -345 -203 -118 -512 -297 -685 -398 -173 -100
-357 -207 -409 -238 l-94 -56 6 -740 c4 -408 7 -1115 7 -1572 l0 -831 113 -66
c61 -36 285 -165 497 -287 212 -122 446 -257 520 -300 74 -43 450 -260 835
-482 385 -223 710 -410 723 -417 20 -11 70 16 540 287 284 165 618 358 742
429 124 71 302 174 395 228 94 54 253 146 355 205 102 58 262 151 355 205 94
54 205 118 248 143 42 24 79 47 82 51 8 14 7 3113 -1 3121 -8 7 -182 110 -504
298 -52 30 -109 63 -126 73 -17 11 -37 19 -43 19 -7 0 -148 -80 -314 -177
-473 -277 -479 -281 -526 -308 l-45 -27 155 -90 c85 -50 217 -128 294 -173 77
-45 159 -93 182 -106 l43 -24 0 -1046 0 -1047 -172 -99 c-95 -55 -499 -288
-897 -518 -407 -235 -726 -413 -730 -408 -3 6 -215 131 -471 278 -256 148
-661 382 -900 520 l-435 251 -5 1044 -5 1043 -180 103 c-99 56 -181 106 -182
111 -2 4 21 21 50 37 28 16 252 145 497 286 245 141 558 321 695 400 138 79
286 164 330 190 44 26 193 111 330 190 138 78 286 164 330 190 44 25 162 93
262 151 138 78 180 106 170 115 -6 6 -115 70 -242 144 -126 73 -243 140 -260
150 l-30 18 -285 -166z m-1935 -1755 l370 -212 3 -1055 2 -1055 68 -39 c37
-21 171 -96 297 -168 127 -71 511 -287 855 -481 l625 -352 6 -65 c7 -72 11
-810 5 -810 -3 0 -44 23 -93 51 -48 28 -171 100 -273 159 -102 59 -239 138
-305 177 -66 39 -194 113 -285 165 -91 52 -435 252 -765 443 -330 191 -658
381 -730 423 -71 41 -138 81 -147 90 -17 14 -18 97 -18 1479 0 804 3 1463 8
1462 4 0 174 -96 377 -212z"/>
<path d="M8705 10061 c-6 -5 -176 -106 -380 -224 -399 -231 -478 -277 -483
-282 -2 -2 38 -28 90 -58 479 -279 581 -337 589 -337 5 0 94 49 197 108 103
60 298 172 435 251 136 79 247 146 247 151 0 4 -7 11 -16 14 -18 7 -570 326
-626 362 -43 27 -41 27 -53 15z"/>
</g>
</svg>
