<svg id="Layer_1" data-name="Layer 1" xmlns="http://www.w3.org/2000/svg" viewBox="0 0 415.91 410.27"><defs><style>.cls-1{fill:#d61747;}.cls-2{fill:#444;}</style></defs><path class="cls-1" d="M199.48,15.43l-24,11.94c-7.74,3.82-19.94,9.9-27.1,13.43s-17.59,8.72-23.18,11.48C111.53,59,108.68,60.44,98.08,65.7c-5,2.51-10.13,5-11.38,5.65s-4,2-6.2,3.08l-16.76,8.3c-10.72,5.33-26,12.89-47.8,23.7-8.65,4.31-10.18,5-10.72,5s-.54,14.66-.29,101.63c.21,78.38.41,101.73.79,101.94.74.43,29.75,14.77,50.77,25.08,5.14,2.55,10.35,5.09,11.59,5.73l10.76,5.29c4.68,2.3,16.22,8,25.66,12.61s19.78,9.75,23,11.34,6.83,3.36,8.07,4c2,1,12.91,6.39,35.59,17.52,3.76,1.87,9.06,4.48,11.79,5.83s10.1,5,16.35,8.05,11.67,5.76,12,6c.7.49,4.06-1.13,49.66-24.06l20.49-10.24,31-15.54c11.09-5.58,48.84-24.48,64.56-32.33,7.29-3.63,18.75-9.36,25.49-12.71l12.26-6.11.24-15.37c.17-8.44.29-54.19.29-101.59l0-86.23-13.45-6.71c-7.41-3.71-14-6.93-14.57-7.17-1.07-.46-2,0-22.84,10.28-40.51,20.06-44.45,22-44.57,22.36-.08.21,1.7,1.23,3.89,2.33s8.65,4.24,14.32,7l10.22,5.09V281.64l-8.77,4.42c-15,7.52-29.47,14.76-40.89,20.45-6,3-16.26,8.16-22.76,11.41L248.1,331.8c-8.77,4.35-17,8.44-18.21,9.08-4.88,2.47-15.56,7.84-16.47,8.27s-1,.31-1.65-.29c-.38-.39-6.09-3.35-12.71-6.57s-13-6.43-14.28-7.06-7.4-3.68-13.65-6.71-15.4-7.56-20.28-10c-11.75-5.83-22.8-11.3-32.69-16.14-4.43-2.19-13.37-6.57-19.87-9.79s-14.52-7.13-17.83-8.76l-6-3-.24-31.26c-.17-17.17-.29-47.72-.29-67.89,0-29-.13-36.67-.5-36.81-.79-.21-2.94.92,18.5-9.72,4.09-2,8.48-4.2,9.72-4.83s8.16-4,15.31-7.6,14.08-7,15.32-7.59l64.43-31.9,12.91-6.4,3.19,1.59L215.9,80l9.19-4.48c5-2.48,16.8-8.23,26.12-12.86s20.19-9.93,24.12-11.83,7.12-3.64,7.12-3.78a23.94,23.94,0,0,0-4-2.27c-5.14-2.54-18.63-9.39-21.73-11l-2.36-1.2-1.78.85c-2.52,1.27-21.23,10.53-26.19,13C224.1,47.58,217.23,51,211.06,54L197.2,60.93l-11.59,5.73c-21.52,10.66-40.93,20.27-43,21.3-1.24.63-8.52,4.23-16.14,8-12.25,6.08-23.67,11.73-56.69,28.09-4.89,2.44-11.26,5.58-14.11,7l-5.26,2.61-3-1.55c-1.7-.85-5.3-2.65-8-4a28.62,28.62,0,0,1-4.92-2.79,32.67,32.67,0,0,1,5.13-2.86l13.61-6.68,13.66-6.71c2.86-1.38,7.7-3.78,10.76-5.3s11.75-5.79,19.24-9.46l56.08-27.52c18.33-9,37-18.16,49.87-24.48,5.46-2.69,10.59-5.2,11.42-5.62s6.54-3.21,12.74-6.22,11.14-5.61,11.1-5.75-28.39-14.45-28.6-14.35C209.41,10.45,204.94,12.68,199.48,15.43ZM18.42,121.76c5.13,2.62,17.71,9,27.94,14.24,24.29,12.33,23.54,11.94,23.87,12.36.17.18.33,30.49.33,67.33v67l11.92,5.93c6.54,3.25,15.15,7.53,19.12,9.54s12.91,6.43,19.87,9.86,14.32,7.13,16.34,8.12,7.08,3.5,11.18,5.55l25,12.47c1.25.6,7.49,3.71,13.87,6.89l17.38,8.65,5.79,2.86-.16,29.67c-.09,16.29-.21,29.71-.29,29.78s-4.1-1.87-8.94-4.27c-9-4.52-26.32-13.14-54.75-27.27-8.86-4.42-17.18-8.55-18.42-9.19s-4-2-6.21-3.1-6.66-3.36-10.05-5-7.82-3.92-9.93-4.95-6.58-3.25-10-5c-6.16-3.07-10.68-5.33-31.66-15.75-6-3-20-10-31.08-15.51L9.4,312l-.25-31.09c-.41-53.27-.66-164.15-.33-164C9,116.92,13.29,119.15,18.42,121.76Z" transform="translate(-4.78 -6.31)"/><path class="cls-1" d="M292.18,55.42c-3.64,1.8-35.39,17.59-39.94,19.82-3.14,1.55-12,5.93-17.92,8.87-2.65,1.3-4.72,2.5-4.55,2.64s6,3.08,12.95,6.5,13.2,6.54,13.87,6.89l1.28.67,7.41-3.63c4.09-2,11.25-5.51,15.93-7.81S296,82.13,303.76,78.31c13.66-6.64,18-8.79,20-9.85l1-.53-1.37-.71c-4.72-2.47-26.49-13.39-26.94-13.53A18.28,18.28,0,0,0,292.18,55.42Z" transform="translate(-4.78 -6.31)"/><path class="cls-1" d="M314.51,87.46c-13.65,6.78-28.59,14.2-33.19,16.46s-8.23,4.28-8.07,4.38,17.8,9,25.91,12.93l2.4,1.17,4.84-2.4c2.65-1.35,9.48-4.7,15.15-7.49s16.22-8,23.38-11.48,15.4-7.56,18.33-9a44.55,44.55,0,0,0,5.26-2.82c0-.11-3.23-1.8-7.16-3.78s-10.18-5.09-13.86-7a51,51,0,0,0-7.45-3.39C339.63,75.13,328.17,80.68,314.51,87.46Z" transform="translate(-4.78 -6.31)"/><path class="cls-1" d="M195.55,108.2c-6.5,3.21-12.83,6.36-14.07,7s-6.46,3.21-11.59,5.72l-24.62,12.19c-8.4,4.16-21.19,10.49-28.35,14.05s-14.77,7.32-16.93,8.41l-3.89,2,.25,26.14c.17,14.41.29,39.39.29,55.53v29.36l4.68,2.33c2.52,1.27,11.79,5.83,20.57,10.13l21.52,10.6c3.06,1.52,18.62,9.19,34.55,17s29.38,14.48,29.92,14.73c.83.39,2.9-.57,22.35-10.14,11.75-5.83,25.57-12.65,30.71-15.15s12.49-6.15,16.34-8.06,10.47-5.15,14.69-7.24,10.85-5.33,14.69-7.24l10.27-5a32.66,32.66,0,0,0,3.39-1.8c.33-.5.29-110,0-110.25s-7.53-3.89-20.86-10.53c-2.15-1.06-4.51-2.22-5.21-2.58a5.69,5.69,0,0,0-1.78-.67c-.29,0-6.13,2.83-13,6.25-19.58,9.79-19.83,9.93-21.77,10.88l-1.87,1,6.42,3.18L274.38,172c3.19,1.59,6.59,3.28,7.54,3.74l1.78.85v73.93l-7.12,3.5-37.12,18.3c-16.85,8.3-30.05,14.59-30.21,14.41s-8.9-4.62-19.49-9.82l-37.25-18.37-18-8.86-.21-36.88L134.09,176l-7.44-3.63a72.89,72.89,0,0,1-7.54-3.93c-.08-.14.87-.74,2.07-1.3L141.75,157l28.76-14.13c5.71-2.8,11.84-5.8,13.66-6.72s8-3.92,13.66-6.71,11.83-5.79,13.65-6.71,6.71-3.28,10.84-5.33c5.72-2.76,7.45-3.75,7-4.07-.25-.21-4.76-2.47-10-5.08L208.59,103l-1.25-.64Zm-80.08,62,15.31,7.49.13,37.27.08,37.27,2.81,1.37c1.54.74,7.08,3.39,12.3,5.94s21.14,10.14,35.38,17L207.34,289l.25,2.3c.29,2.54.46,28.61.21,28.61s-1.82-.81-3.85-1.8l-11.3-5.62c-4.22-2.08-9.89-4.87-12.62-6.25s-8-4-11.79-5.83-18-8.9-31.66-15.65-27.23-13.45-30.21-14.94-5.71-2.86-6.09-3.18c-.7-.49-.74-3.42-.74-52.24,0-28.4.12-51.68.33-51.65S107.07,166.09,115.47,170.19Z" transform="translate(-4.78 -6.31)"/><path class="cls-1" d="M245.41,121.66c-.24.17-7.28,3.74-15.72,7.91-16.51,8.16-19.78,9.78-20,10a23.5,23.5,0,0,0,3.72,2.05c19.83,9.85,24.05,11.9,24.38,11.9s3.89-1.73,8.15-3.81,12.34-6.08,18-8.87,10.22-5.16,10.22-5.33-.29-.39-.67-.5c-.74-.24-23.58-11.51-25.9-12.78C245.83,121.23,245.91,121.23,245.41,121.66Z" transform="translate(-4.78 -6.31)"/><path class="cls-2" d="M205,11.29,181,23.22C173.3,27,161.1,33.1,153.94,36.63s-17.58,8.72-23.16,11.48c-13.65,6.74-16.5,8.15-27.09,13.41-5,2.51-10.13,5-11.37,5.65s-4,2-6.21,3.07l-16.74,8.3c-10.72,5.33-26,12.88-47.77,23.68-8.65,4.31-10.18,5-10.71,5s-.54,14.65-.29,101.56c.2,78.34.41,101.67.78,101.88.75.43,29.74,14.76,50.75,25.07,5.13,2.54,10.34,5.08,11.58,5.72s6.08,3,10.75,5.29,16.21,8,25.64,12.6,19.77,9.75,23,11.34,6.82,3.35,8.06,4c2,1,12.9,6.39,35.57,17.51,3.76,1.87,9.05,4.49,11.78,5.83s10.1,5,16.34,8.05,11.66,5.75,12,6c.71.5,4.06-1.13,49.63-24,5.13-2.57,14.35-7.16,20.47-10.23,16.8-8.41,22.38-11.19,31-15.54,11.09-5.57,48.8-24.46,64.52-32.3l25.48-12.71,12.24-6.1.24-15.36c.17-8.44.29-54.15.29-101.53l0-86.17-13.44-6.71c-7.4-3.7-14-6.92-14.56-7.16-1.07-.46-2,0-22.82,10.27-40.49,20-44.42,22-44.55,22.35-.08.21,1.7,1.23,3.89,2.33s8.64,4.23,14.31,7l10.22,5.08v136l-8.77,4.41c-15,7.52-29.45,14.76-40.86,20.44-6,3-16.26,8.16-22.75,11.41l-27.71,13.87c-8.77,4.34-17,8.44-18.2,9.07-4.88,2.47-15.55,7.84-16.46,8.26s-1,.32-1.65-.28c-.37-.39-6.08-3.35-12.7-6.56s-13-6.43-14.27-7.07-7.4-3.67-13.64-6.7-15.39-7.56-20.27-10c-11.74-5.83-22.79-11.3-32.67-16.14-4.43-2.18-13.36-6.56-19.85-9.77l-17.83-8.76-6-3-.25-31.25c-.17-17.15-.29-47.69-.29-67.85,0-29-.13-36.64-.5-36.78-.78-.21-2.94.92,18.49-9.71,4.09-2.05,8.48-4.2,9.72-4.84s8.14-4,15.3-7.59,14.06-7,15.3-7.59c4.51-2.22,51.78-25.62,64.39-31.87l12.91-6.39,3.18,1.59,3.14,1.58,9.19-4.48c5-2.47,16.79-8.22,26.09-12.85S276.9,48.6,280.82,46.7s7.12-3.64,7.12-3.78a24.31,24.31,0,0,0-4-2.26c-5.13-2.54-18.61-9.39-21.72-11l-2.35-1.2-1.78.85c-2.52,1.27-21.22,10.52-26.18,13-2.28,1.13-9.14,4.56-15.3,7.59l-13.86,6.89-11.58,5.72c-21.5,10.66-40.9,20.26-43,21.28-1.24.64-8.52,4.24-16.13,8L75.36,119.84c-4.88,2.44-11.25,5.58-14.1,7L56,129.48l-3-1.56c-1.7-.84-5.3-2.64-8-4a29,29,0,0,1-4.93-2.79,34.24,34.24,0,0,1,5.13-2.86C48,117,54.15,114,58.82,111.65s10.79-5.29,13.65-6.71,7.69-3.77,10.75-5.29S95,93.86,102.45,90.19l56-27.5c18.32-9,36.93-18.15,49.83-24.47,5.47-2.68,10.59-5.19,11.42-5.61s6.53-3.21,12.74-6.21,11.12-5.62,11.08-5.76S215.19,6.2,215,6.31C214.94,6.31,210.48,8.53,205,11.29ZM24.08,117.55c5.13,2.61,17.7,9,27.92,14.22,24.27,12.32,23.53,11.93,23.86,12.36.16.17.33,30.46.33,67.28v67l11.91,5.93c6.53,3.25,15.14,7.52,19.11,9.53s12.9,6.43,19.85,9.85,14.31,7.13,16.33,8.12,7.08,3.5,11.17,5.54l25,12.47c1.24.6,7.49,3.7,13.86,6.88l17.37,8.65,5.79,2.86-.17,29.65c-.08,16.28-.21,29.69-.29,29.76s-4.09-1.87-8.93-4.27c-9-4.52-26.3-13.13-54.72-27.25-8.85-4.42-17.16-8.55-18.4-9.18s-4.05-2.05-6.2-3.11-6.66-3.35-10-5-7.82-3.92-9.93-4.94-6.58-3.25-10-5c-6.16-3.07-10.67-5.33-31.64-15.75-6-3-20-10-31.06-15.49l-20.14-10-.24-31.06c-.42-53.24-.67-164-.34-163.91C14.65,112.71,19,114.93,24.08,117.55Z" transform="translate(-4.78 -6.31)"/><path class="cls-2" d="M297.66,51.25c-3.64,1.8-35.36,17.58-39.91,19.8-3.14,1.56-12,5.93-17.91,8.86-2.64,1.31-4.71,2.51-4.55,2.65s6,3.07,13,6.5,13.19,6.53,13.85,6.88l1.28.67L270.78,93c4.09-2,11.25-5.51,15.92-7.81s14.81-7.23,22.54-11c13.65-6.63,17.95-8.79,20-9.84l.95-.53L328.84,63c-4.71-2.47-26.47-13.38-26.92-13.52A18.46,18.46,0,0,0,297.66,51.25Z" transform="translate(-4.78 -6.31)"/><path class="cls-2" d="M320,83.27c-13.65,6.78-28.58,14.19-33.17,16.45s-8.23,4.27-8.07,4.38,17.79,9,25.89,12.92l2.4,1.16,4.84-2.4c2.65-1.34,9.47-4.69,15.14-7.48s16.21-8,23.36-11.48,15.39-7.55,18.33-9A45.79,45.79,0,0,0,374,85c0-.1-3.23-1.8-7.16-3.77s-10.17-5.09-13.85-7a51.9,51.9,0,0,0-7.44-3.39C345.09,71,333.63,76.49,320,83.27Z" transform="translate(-4.78 -6.31)"/><path class="cls-2" d="M201.09,104c-6.5,3.21-12.83,6.35-14.07,7s-6.45,3.22-11.58,5.72-16.17,8-24.6,12.18-21.18,10.49-28.33,14-14.77,7.31-16.92,8.4l-3.89,2,.25,26.12c.17,14.41.29,39.37.29,55.5v29.34l4.68,2.33c2.52,1.27,11.78,5.82,20.55,10.13s18.45,9.07,21.51,10.59,18.61,9.18,34.53,17,29.36,14.48,29.9,14.72c.83.39,2.89-.56,22.33-10.13,11.75-5.82,25.56-12.64,30.69-15.14s12.49-6.14,16.34-8.05l14.68-7.24c4.22-2.05,10.83-5.33,14.68-7.23l10.26-5.05a35.23,35.23,0,0,0,3.39-1.8c.33-.5.29-109.9,0-110.18s-7.53-3.88-20.85-10.52c-2.15-1.06-4.51-2.22-5.21-2.58a5.6,5.6,0,0,0-1.78-.67c-.29,0-6.12,2.83-13,6.25-19.57,9.78-19.81,9.92-21.76,10.87l-1.86,1,6.41,3.17,12.16,6.11c3.19,1.59,6.58,3.28,7.53,3.74l1.78.85v73.89l-7.12,3.49L245,268c-16.84,8.29-30,14.58-30.2,14.4s-8.89-4.62-19.47-9.81l-37.23-18.36-18-8.86-.2-36.86-.21-36.82-7.44-3.63a73.2,73.2,0,0,1-7.53-3.92c-.08-.14.87-.74,2.07-1.31l20.55-10.09,28.74-14.12c5.71-2.79,11.83-5.79,13.65-6.71s8-3.92,13.65-6.71,11.83-5.79,13.65-6.71,6.7-3.28,10.83-5.33c5.71-2.75,7.45-3.74,7-4.06-.25-.21-4.76-2.47-10-5.08s-10.05-4.94-10.76-5.29l-1.24-.64Zm-80,62,15.3,7.49.13,37.24.08,37.25,2.81,1.37c1.53.74,7.07,3.39,12.28,5.93s21.14,10.14,35.36,17l25.85,12.43.25,2.29c.29,2.55.46,28.6.21,28.6s-1.82-.81-3.85-1.8-7.07-3.53-11.29-5.61-9.88-4.88-12.61-6.25-8-4-11.79-5.83-18-8.89-31.64-15.64S114.94,266.94,112,265.46s-5.71-2.86-6.08-3.18c-.7-.49-.74-3.42-.74-52.21,0-28.38.12-51.64.33-51.61S112.66,161.85,121.06,165.94Z" transform="translate(-4.78 -6.31)"/><path class="cls-2" d="M250.92,117.44c-.25.18-7.28,3.74-15.71,7.91-16.51,8.15-19.77,9.78-20,10a23.5,23.5,0,0,0,3.72,2c19.81,9.85,24,11.9,24.36,11.9s3.89-1.73,8.15-3.82,12.32-6.07,18-8.86,10.22-5.15,10.22-5.33-.29-.39-.67-.49c-.74-.25-23.57-11.51-25.89-12.78C251.34,117,251.42,117,250.92,117.44Z" transform="translate(-4.78 -6.31)"/></svg>